<svg width="148" height="148" viewBox="0 0 148 148" fill="none" xmlns="http://www.w3.org/2000/svg">
<path fill-rule="evenodd" clip-rule="evenodd" d="M25.0118 0.532892C19.2142 2.00491 15.128 4.84485 12.8902 8.95759C9.75205 14.7254 10.6001 23.3869 14.8482 28.954L15.8543 30.2722L14.7063 30.79C13.4082 31.3758 12.2604 32.6093 11.6436 34.0816C11.0487 35.5019 11.0822 39.9061 11.7043 42.061C13.0922 46.8709 15.6595 49.5495 19.7044 50.4091C20.2695 50.5291 20.5926 50.8897 20.9534 51.8025C22.0225 54.5088 24.7341 57.9317 27.1184 59.5847C27.7416 60.0167 27.7748 60.2046 27.6965 62.8555L27.6132 65.6679L17.1605 69.3565C11.4115 71.3851 6.13611 73.3799 5.43749 73.7896C3.7015 74.8074 1.84612 76.8915 0.922917 78.8614L0.15406 80.5023L0.0768857 113.441L0 146.379L0.633295 147.053C1.49638 147.972 3.14509 147.975 4.00586 147.058L4.63424 146.389V128.409V110.428H9.25894H13.8836V128.449V146.47L14.5525 147.099C15.4693 147.96 17.0507 147.941 17.88 147.058L18.5083 146.389V120.878V95.3667L17.7987 94.6572C16.8602 93.718 15.5318 93.718 14.5932 94.6572C13.8938 95.3566 13.8836 95.439 13.8836 100.44V105.513H9.25894H4.63424L4.64118 94.4533C4.64551 87.9529 4.77067 82.8573 4.94525 82.0926C5.30714 80.5061 6.32948 78.9794 7.59232 78.1397C8.11144 77.7945 11.0077 76.6443 14.0282 75.5834C17.0487 74.5229 21.4959 72.9595 23.9106 72.1091L28.3012 70.5634L29.157 72.0805C32.0211 77.1566 38.7024 78.6738 43.5485 75.3478C44.7645 74.513 46.8589 72.0276 47.2081 71.0043C47.2853 70.7788 48.1978 70.9757 50.041 71.6153C53.2454 72.7276 54.044 72.775 54.8443 71.9004C55.7236 70.9393 55.8861 70.0964 55.3805 69.118C54.9264 68.2395 54.5018 68.0305 49.9419 66.4391L47.9908 65.7581V62.6276V59.4971L49.5433 58.0777C51.1983 56.5643 53.1422 53.792 53.9084 51.8519C54.3336 50.7749 54.5059 50.6395 55.8424 50.3307C57.9588 49.8421 59.2297 49.1661 60.5076 47.8488C63.4683 44.7969 64.9678 38.5983 63.7434 34.4734C63.4315 33.4232 62.9451 32.6758 62.0155 31.8185C61.3039 31.1624 60.5238 30.6255 60.2815 30.6255C59.6722 30.6255 59.7058 30.5266 60.8645 28.9132C62.1294 27.1521 63.1497 24.6814 63.8934 21.5777C64.6568 18.3931 64.6314 17.4638 63.7567 16.5892C62.3488 15.1805 60.0312 16.0589 59.6835 18.1326C59.3237 20.2789 58.3724 23.4632 57.6958 24.7875C56.9914 26.1661 55.0585 28.6015 54.6692 28.6015C54.5515 28.6015 54.2394 27.9157 53.9752 27.0775C53.2537 24.788 51.9189 22.8603 50.7026 22.352C49.4005 21.8079 48.3807 22.0207 46.7982 23.1674C46.1239 23.6561 44.848 24.3957 43.9633 24.8109C42.5395 25.4788 42.0056 25.5638 39.3195 25.5505C35.8643 25.5337 34.1387 25.1159 30.3314 23.3753C26.9779 21.842 26.4773 22.0025 24.8491 25.1327C24.2034 26.3743 23.2599 27.8706 22.7527 28.4578L21.8297 29.5256L20.1672 27.7818C18.3115 25.8356 16.7038 22.8077 16.1761 20.265C15.9922 19.3791 15.8971 17.5419 15.9648 16.1826C16.331 8.8081 21.8352 4.90007 32.527 4.4227C37.3722 4.20643 40.7685 4.71936 46.2727 6.49873C51.4264 8.16447 53.3509 8.28331 55.9436 7.09581C57.2538 6.49584 57.6842 6.40563 57.8701 6.69188C58.1993 7.19903 59.5526 11.4717 59.5526 12.004C59.5526 12.2416 59.872 12.7552 60.2622 13.1455C61.5571 14.4411 63.6249 13.8767 64.268 12.0525C64.5533 11.243 63.4064 7.24848 62.1704 4.74741C59.7503 -0.150059 58.5291 -0.734991 55.5522 1.57756C53.202 3.40348 52.5993 3.44165 48.277 2.03816C42.1663 0.0540745 41.6694 -0.0167651 33.9722 0.00202909C28.3188 0.0159078 26.6608 0.114216 25.0118 0.532892ZM112.52 10.4047C104.06 11.5052 96.3759 16.5678 91.9264 23.9735C88.7694 29.2281 87.8789 33.3431 87.8789 42.6757V49.1568L88.5885 49.8664C89.4617 50.7402 90.9925 50.8116 91.9657 50.024C92.6429 49.476 92.6495 49.413 92.8235 41.8557C93.0218 33.2532 93.284 31.8249 95.4186 27.7205C99.0955 20.6507 105.719 16.1479 113.784 15.2345C120.564 14.4666 127.73 16.9986 132.62 21.8903C134.772 24.0429 135.919 25.7107 137.303 28.6961C139.497 33.4305 139.472 33.1763 139.473 51.0099L139.473 66.9127L132.897 66.9905C125.035 67.0833 125.142 67.1648 128.572 63.6948C132.73 59.4881 133.837 56.2625 133.837 48.3484C133.837 42.2756 133.84 42.2819 130.206 41.4747C128.944 41.1945 126.849 40.5905 125.55 40.1325C122.74 39.1416 122.023 39.1046 121.013 39.8991C120.051 40.6558 119.946 42.4635 120.813 43.3306C121.254 43.7724 124.672 45.0013 128.562 46.1174C129.072 46.2637 129.04 52.5678 128.52 54.523C127.217 59.4181 123.023 63.168 117.977 63.9493C112.641 64.7756 107.105 61.8524 104.697 56.9373C103.525 54.545 103.092 51.4275 103.254 46.5653C103.407 42 103.797 41.0412 106.854 37.7268L109.091 35.3021L110.912 37.2694C112.989 39.5134 115.172 41.0346 116.316 41.0346C117.469 41.0346 118.518 39.8543 118.518 38.5566C118.518 37.7283 118.322 37.3327 117.618 36.7365C114.296 33.9217 113.235 32.7273 112.266 30.7114C111.201 28.4974 110.448 27.7341 109.329 27.7341C108.215 27.7341 107.645 28.212 106.663 29.9683C105.567 31.929 104.22 33.6372 102.091 35.7676C101.161 36.6989 100.188 38.0752 99.6343 39.2442L98.718 41.1791V48.1185C98.718 54.678 98.7556 55.1672 99.4068 57.0538C100.299 59.6396 102.671 63.1108 104.557 64.5889C105.53 65.3516 106.053 65.9816 106.067 66.4067C106.088 67.0442 106.024 67.0573 102.815 67.0573C99.7863 67.0573 99.4976 67.1058 98.9559 67.7078C98.087 68.6735 97.9567 69.2961 98.4007 70.3595C98.9296 71.6257 100.002 71.9726 103.386 71.9726C105.496 71.9726 106.089 72.0605 106.089 72.3731C106.089 72.5934 104.527 73.6445 102.618 74.7085C100.71 75.7728 99.0186 76.8851 98.8608 77.1804C98.0252 78.7423 99.1383 80.936 100.766 80.936C101.192 80.936 102.676 80.2854 104.065 79.4903C105.454 78.6952 106.722 78.0446 106.883 78.0446C107.043 78.0446 107.334 78.43 107.529 78.901C108.028 80.105 110.451 82.2877 112.084 83.0022C116.338 84.8651 121.752 83.3443 124.294 79.573C124.853 78.744 125.394 78.0608 125.497 78.055C125.794 78.0385 141.15 86.7379 141.743 87.2592C143.161 88.5048 143.231 88.975 143.231 97.2725V105.079L139.979 105.161L136.727 105.243V102.438C136.727 98.4036 136.259 96.0367 135.264 95.0412C134.199 93.9757 133.163 93.9988 132.05 95.1123C131.29 95.8721 131.198 96.1306 131.351 97.064C132.376 103.309 131.465 107.533 127.557 114.658C125.007 119.308 124.456 120.921 124.449 123.772C124.443 125.942 124.482 126.06 126.519 130.133C127.661 132.415 129.32 135.429 130.205 136.831L131.814 139.379V142.843C131.814 146.136 131.849 146.343 132.523 147.018C133.221 147.716 134.408 147.934 135.414 147.548C136.707 147.052 136.727 146.75 136.727 127.936V110.139H140.051H143.375L143.385 128.283C143.394 147.804 143.34 147.109 144.906 147.705C145.841 148.061 147.308 147.614 147.717 146.849C147.896 146.514 148 135.761 148 117.542C148 88.9319 147.997 88.755 147.388 87.1265C146.326 84.2886 145.078 83.3312 135.21 77.7835C130.125 74.925 126.322 72.6125 126.322 72.3798C126.322 72.04 127.579 71.9724 133.909 71.9709C138.377 71.97 141.951 71.8431 142.604 71.6618C144.558 71.1191 144.532 71.3579 144.527 53.9829C144.521 37.9726 144.348 34.5549 143.354 30.9146C142.644 28.3132 140.664 24.088 139.223 22.1011C137.731 20.0424 134.565 16.8954 132.493 15.4098C130.373 13.8895 125.987 11.7987 123.576 11.1588C119.99 10.2073 116.086 9.94096 112.52 10.4047ZM50.1575 39.6039L50.1587 48.4377L49.0909 50.5913C44.148 60.5605 30.4161 60.4313 25.6521 50.3704L24.7228 48.4077L24.6323 41.0996L24.5421 33.7913L25.7408 32.4292C26.4001 31.6797 27.3447 30.4098 27.8398 29.6066L28.7402 28.1467L31.5006 29.067C37.6971 31.1329 42.1004 31.0598 46.5456 28.8169L49.0025 27.5771L49.5794 29.1737C50.1084 30.6374 50.1563 31.5036 50.1575 39.6039ZM19.5989 40.2394C19.644 43.1647 19.5654 45.3717 19.4165 45.3717C19.2726 45.3717 18.7497 44.9568 18.254 44.4499C16.9284 43.0935 16.1362 40.7504 16.0902 38.0492C16.0445 35.3882 16.4267 34.8793 18.3638 35.0222L19.52 35.1072L19.5989 40.2394ZM58.8462 35.4539C59.6341 36.2421 59.2893 40.5294 58.2707 42.6124C57.4969 44.1946 56.3624 45.3717 55.6115 45.3717C55.06 45.3717 55.0276 35.3764 55.5782 35.154C56.443 34.805 58.3747 34.9823 58.8462 35.4539ZM73.7157 50.9972C72.6824 51.219 70.6377 51.8002 69.1717 52.2894C67.7056 52.7783 66.387 53.1785 66.2413 53.1785C66.0957 53.1785 65.341 52.7413 64.5643 52.2067C62.7618 50.9666 62.047 50.748 61.2256 51.1857C60.3463 51.6544 60.0072 52.1058 58.8427 54.3602C57.4362 57.0822 56.8671 59.4907 56.8671 62.7201C56.8671 65.9712 57.4535 68.448 58.8482 71.0861L59.8315 72.9465L58.8346 73.9437C57.4796 75.2992 57.1498 76.4786 57.2937 79.4521C57.398 81.6097 57.5483 82.1987 58.4025 83.7985C59.5659 85.978 61.6499 87.7881 63.2997 88.0518C64.2698 88.207 64.4631 88.3857 65.0383 89.6588C65.3942 90.4464 66.3928 91.8551 67.2573 92.7893L68.8291 94.4877L68.7433 96.4169L68.6575 98.346L65.1889 99.6107C63.2812 100.306 61.6227 100.878 61.5036 100.881C61.3845 100.884 61.2868 99.7744 61.2868 98.4146C61.2868 95.8427 60.8663 94.4698 59.9731 94.1269C58.9676 93.7409 57.7807 93.9586 57.0827 94.6572C56.4026 95.3372 56.3731 95.5223 56.3731 99.0923V102.818L55.2452 103.191C53.2902 103.836 51.4169 105.495 50.3798 107.499L49.436 109.322V128.07V146.818L50.1977 147.417C51.0446 148.084 52.2305 148.183 52.9297 147.646C53.9703 146.847 54.0607 146.138 54.0607 138.783V131.536H56.6486H59.2367L59.3222 139.224C59.4081 146.908 59.4083 146.912 60.0905 147.464C61.0406 148.234 62.3176 148.168 63.1786 147.307L63.8882 146.597V133.19V119.782L63.2194 119.153C62.302 118.291 60.8802 118.327 59.9731 119.234C59.2982 119.909 59.2635 120.114 59.2635 123.427V126.909H56.6621H54.0607V118.654C54.0607 109.971 54.1212 109.514 55.423 108.335C55.7279 108.059 59.0257 106.732 62.7511 105.387C68.8647 103.178 69.5526 102.988 69.8136 103.431C69.9726 103.701 70.7146 104.535 71.4623 105.284C75.0101 108.837 80.5635 108.037 83.5432 103.544L83.9768 102.891L90.7913 105.324C94.539 106.663 97.8919 107.936 98.242 108.154C98.592 108.371 99.1351 109.078 99.4487 109.725C99.9742 110.808 100.019 111.527 100.019 118.916V126.931L97.3451 126.848L94.6714 126.765L94.5893 123.304C94.5165 120.229 94.4384 119.768 93.8887 119.183C93.1184 118.363 91.6708 118.314 90.7291 119.077L90.0467 119.629L89.9635 132.594C89.9178 139.725 89.9519 145.848 90.0392 146.201C90.454 147.878 92.3804 148.507 93.7653 147.417L94.5269 146.818V139.177V131.536H97.2728H100.019V139.066V146.597L100.728 147.307C102.008 148.587 104.063 147.994 104.502 146.217C104.592 145.855 104.628 137.427 104.582 127.488L104.499 109.416L103.695 107.78C103.253 106.879 102.36 105.662 101.709 105.074L100.526 104.005L100.523 101.506C100.52 100.132 100.668 98.4652 100.851 97.8025C101.26 96.3238 100.867 95.2583 99.6878 94.6485C98.5865 94.0789 98.1688 94.1278 97.2046 94.9394C96.2305 95.7594 95.6831 97.6992 95.6831 100.33C95.6831 101.272 95.6221 102.043 95.5475 102.043C95.4252 102.043 86.4311 98.8902 85.2052 98.4174C84.8075 98.2642 84.6994 97.8791 84.6994 96.6155C84.6994 95.0441 84.7378 94.9683 86.4423 93.1927C87.4011 92.194 88.5098 90.6682 88.9061 89.8016C89.5299 88.4389 89.7614 88.201 90.6205 88.0399C92.0356 87.7742 94.6023 85.3321 95.5981 83.3041C96.3132 81.8474 96.4045 81.3443 96.3964 78.912C96.3863 75.861 96.0426 74.8831 94.5341 73.6132L93.6531 72.8719L94.6939 70.9777C96.0316 68.5431 96.5433 66.579 96.5433 63.8767C96.5433 57.4977 93.4701 53.5486 86.8672 51.4425C84.269 50.6138 76.6995 50.3576 73.7157 50.9972ZM86.4299 56.0846C88.8706 56.9474 91.056 59.0428 91.6182 61.0587C92.1249 62.8769 91.8804 66.2297 91.1141 67.9738C90.5548 69.246 88.631 71.6835 88.1858 71.6835C88.0737 71.6835 87.43 70.7184 86.7551 69.5387C85.1445 66.7224 84.4098 66.4619 81.8049 67.7821C80.1435 68.6244 77.2536 69.3605 75.5945 69.3646C73.9178 69.3683 72.624 68.9396 70.8351 67.7865C69.8657 67.1616 68.8968 66.7681 68.3279 66.7681C67.1397 66.7681 65.8032 67.8801 64.9328 69.593L64.2695 70.8985L63.5446 69.9177C62.2586 68.1783 61.7912 66.5397 61.6565 63.2984C61.5548 60.8517 61.6377 59.9259 62.084 58.5276C62.3884 57.5734 62.7563 56.822 62.9014 56.8575C63.0468 56.8931 63.7495 57.1308 64.4634 57.3858C66.0014 57.9354 67.3108 57.7955 70.3221 56.7589C74.2059 55.4222 75.5991 55.2204 80.2192 55.3242C83.8349 55.4057 84.8662 55.5321 86.4299 56.0846ZM35.3249 62.7071C37.2869 62.9546 39.6912 62.8011 42.1377 62.2725L43.0771 62.0696L43.0707 65.0694C43.0638 68.3303 42.6267 69.8052 41.3087 71.0136C38.9966 73.1338 34.963 72.5081 33.3658 69.7818C32.7443 68.7213 32.6715 68.256 32.6715 65.3522C32.6715 63.4262 32.7808 62.1751 32.9403 62.274C33.088 62.3654 34.1612 62.5602 35.3249 62.7071ZM114.11 68.8204C116.1 69.0974 119.127 68.8757 120.933 68.3205C121.439 68.1647 121.463 68.3546 121.357 71.7266C121.273 74.3812 121.117 75.5351 120.748 76.2224C119.224 79.065 115.246 79.7942 112.832 77.6733C111.282 76.3118 111.002 75.3724 111.002 71.5173C111.002 68.4928 111.051 68.1707 111.485 68.3373C111.75 68.4391 112.931 68.6565 114.11 68.8204ZM70.8874 72.9841C73.6805 74.2632 77.9494 74.2051 81.5803 72.8386L82.9411 72.3266L84.3985 74.3242L85.8556 76.3219V80.4173C85.8556 85.2621 85.4318 87.1401 83.8785 89.1777C82.3076 91.2381 80.2594 92.2807 77.4649 92.4426C75.5254 92.5548 75.0118 92.4759 73.6611 91.8571C71.5037 90.8691 70.1238 89.5718 69.1748 87.6389C68.3953 86.0506 68.3652 85.8179 68.2693 80.6469C68.1748 75.5421 68.4907 72.2618 69.0769 72.2618C69.2052 72.2618 70.02 72.5868 70.8874 72.9841ZM63.5992 80.2776C63.5992 83.1537 63.5671 83.3318 63.1532 82.7411C62.3236 81.5559 61.8649 80.0932 61.8649 78.6321C61.8649 77.2084 61.8834 77.1772 62.7321 77.1772H63.5992V80.2776ZM91.8714 78.4208C91.9642 79.5447 91.2277 82.2429 90.7473 82.5399C90.591 82.6364 90.4803 81.5496 90.4803 79.9208C90.4803 77.1992 90.4947 77.139 91.1306 77.2292C91.6549 77.3038 91.7986 77.5348 91.8714 78.4208ZM79.929 98.8197C79.9284 99.7516 79.738 100.869 79.5059 101.303C78.4321 103.31 75.3667 103.427 74.1108 101.51C73.8406 101.098 73.5712 99.9464 73.4949 98.8763L73.3588 96.9755L76.6446 97.0504L79.9302 97.125L79.929 98.8197ZM131.793 123.657L131.772 129.945L130.47 127.343C129.287 124.98 129.181 124.599 129.316 123.193C129.45 121.804 131.231 117.368 131.655 117.368C131.742 117.368 131.804 120.198 131.793 123.657Z" fill="#43AF88"/>
</svg>
