<svg width="110" height="148" viewBox="0 0 110 148" fill="none" xmlns="http://www.w3.org/2000/svg">
<path fill-rule="evenodd" clip-rule="evenodd" d="M45.2575 0.422916C33.2422 2.33974 23.0888 11.4653 19.6506 23.4373C18.642 26.9503 18.3225 30.478 18.3225 38.1051C18.3225 43.9143 18.3932 44.9683 18.8941 46.6043C19.8944 49.8724 22.8433 52.419 26.0743 52.8053C26.8821 52.9019 27.5778 53.124 27.6205 53.2989C27.6632 53.4739 27.9182 54.7823 28.1873 56.2064C28.4561 57.6305 29.0515 59.7775 29.5105 60.9775C30.5289 63.6398 33.1918 67.8268 35.185 69.8992L36.6612 71.4343V75.6193C36.6612 80.1831 36.4088 81.2859 35.132 82.2994C34.7253 82.6221 29.7776 84.8744 24.137 87.3045C18.4961 89.7346 13.0194 92.1713 11.9664 92.7196C8.28199 94.6378 5.48705 98.5423 4.79906 102.733C4.50019 104.553 4.44374 104.645 3.12622 105.472C2.26458 106.012 1.46169 106.844 0.944761 107.731L0.126968 109.135L0.0329807 118.244C-0.0819231 129.376 -0.00828147 129.856 2.14595 132.03C2.98495 132.876 3.87323 133.569 4.11995 133.569C4.51366 133.569 4.56839 134.366 4.56839 140.088V146.608L5.27185 147.317C6.16816 148.222 7.26677 148.222 8.16307 147.317L8.86654 146.608V140.292V133.975L10.3632 132.977C11.4486 132.253 12.0787 131.552 12.6555 130.428L13.4512 128.877V119.473C13.4512 113.173 13.3415 109.7 13.1186 108.95C12.6936 107.518 11.1838 105.736 9.85769 105.101C8.85679 104.622 8.82986 104.568 9.00952 103.401C9.30552 101.478 10.5021 99.2889 12.0007 97.9293C13.1865 96.8533 16.2402 95.3046 20.2523 93.7446C20.5309 93.6362 20.622 99.26 20.6821 120.264L20.7581 146.922L21.4346 147.475C22.3109 148.19 23.2166 148.175 24.1579 147.428L24.913 146.829V127.765V108.702H43.6655H62.418L63.1954 108.027C63.7671 107.531 63.9656 107.098 63.9456 106.393C63.8909 104.45 64.4138 104.524 49.7606 104.364L36.518 104.22L36.4392 95.5449C36.3627 87.1307 36.3776 86.8557 36.9415 86.3893C37.4925 85.9336 37.818 86.0076 43.203 87.814L48.8832 89.7195L50.2391 92.4021C51.8176 95.5258 52.8704 96.4124 55 96.4124C57.1296 96.4124 58.1823 95.5258 59.7609 92.4021L61.1168 89.7195L66.797 87.814C72.182 86.0076 72.5075 85.9336 73.0585 86.3893C73.6225 86.8557 73.6374 87.1307 73.5608 95.5449L73.482 104.22L71.6674 104.365C69.6128 104.53 69.0406 105.01 69.0406 106.567C69.0406 107.234 69.2578 107.675 69.7957 108.102C70.5143 108.673 70.8997 108.702 77.8189 108.702H85.087V127.765V146.829L85.8421 147.428C86.7834 148.175 87.6891 148.19 88.5654 147.475L89.2419 146.922L89.3179 120.264C89.378 99.26 89.4692 93.6362 89.7477 93.7446C93.7601 95.3049 96.8135 96.8533 97.9993 97.9293C99.4858 99.2779 100.659 101.431 100.98 103.401C101.17 104.571 101.146 104.62 100.142 105.101C98.8162 105.736 97.3064 107.518 96.8815 108.95C96.6585 109.7 96.5488 113.173 96.5488 119.473V128.877L97.3445 130.428C97.9213 131.552 98.5514 132.253 99.6369 132.977L101.133 133.975V140.402V146.829L101.889 147.428C102.89 148.223 103.869 148.185 104.728 147.317L105.432 146.608V140.088C105.432 134.366 105.486 133.569 105.88 133.569C106.127 133.569 107.015 132.876 107.854 132.03C110.008 129.856 110.082 129.376 109.967 118.244L109.873 109.135L109.055 107.731C108.538 106.844 107.735 106.012 106.874 105.472C105.556 104.645 105.5 104.553 105.201 102.733C104.577 98.9353 102.191 95.2902 98.9844 93.2395C98.1964 92.7355 92.5054 90.1443 86.3375 87.4815C80.1534 84.8117 74.86 82.3564 74.5365 82.008C73.5333 80.9274 73.3388 79.8832 73.3388 75.5809V71.4138L74.8056 69.8891C78.1822 66.3787 80.9047 61.0683 81.8139 56.2194C82.0821 54.7881 82.3368 53.4739 82.3795 53.2989C82.4222 53.124 83.1044 52.9034 83.8959 52.8088C87.4387 52.3855 90.2907 49.7602 91.2514 46.0379C91.7695 44.0311 91.8457 32.9951 91.3712 28.7014C89.7806 14.308 78.6272 2.55141 64.5281 0.406723C60.9125 -0.143255 48.7419 -0.133135 45.2575 0.422916ZM65.8184 4.99971C73.7038 7.05157 80.5674 12.3967 83.9692 19.1349L84.8088 20.7976H73.384H61.9593L61.7713 18.7552C61.5524 16.3801 61.01 14.9097 59.9277 13.7589C57.3009 10.9662 52.6991 10.9662 50.0723 13.7589C48.4645 15.4687 48.2989 16.3168 48.1791 23.4555L48.0691 30.0171L40.2877 30.1061C33.3499 30.1857 32.3978 30.2536 31.5035 30.7342C30.0991 31.4892 28.977 32.6013 28.2546 33.9543C27.6821 35.0267 27.6302 35.6027 27.5411 41.8679L27.4449 48.6247L26.4388 48.4599C24.9889 48.2225 23.61 47.0392 23.0456 45.548C22.6189 44.4203 22.5759 43.3062 22.6928 36.3624C22.7745 31.5036 22.967 27.8198 23.1926 26.7976L23.5593 25.1349H32.8324C41.7236 25.1349 42.129 25.1112 42.6786 24.5566C43.532 23.6955 43.4429 22.1479 42.4967 21.397C41.7726 20.8219 41.4044 20.7976 33.4657 20.7976H25.1898L25.9454 19.2795C28.4185 14.3091 33.7184 9.22344 38.8418 6.90381C43.8154 4.65185 46.0229 4.33551 56.0029 4.4451C62.2278 4.51363 64.4278 4.63797 65.8184 4.99971ZM56.1892 16.1942C57.3594 16.8263 57.5789 18.1 57.5789 24.2582V30.0506H55H52.4211V24.2582C52.4211 18.1703 52.6375 16.865 53.7553 16.2095C54.4407 15.8073 55.461 15.8012 56.1892 16.1942ZM86.8521 27.2313C87.1135 28.658 87.2361 31.8677 87.2361 37.2796C87.2361 44.2812 87.1768 45.341 86.739 46.1483C86.1089 47.3108 84.8002 48.2572 83.5371 48.4639L82.5552 48.6247L82.4589 41.8679C82.3698 35.6027 82.3179 35.0267 81.7454 33.9543C80.3946 31.4238 78.463 30.2903 75.2013 30.1142C73.1723 30.0046 72.8184 30.0628 72.121 30.62C71.5522 31.0742 71.333 31.5094 71.333 32.1849C71.333 33.8389 71.8571 34.2096 74.4709 34.4033C77.7988 34.65 78.0372 34.9377 78.1639 38.8592C78.2951 42.9199 77.7931 44.6696 75.9724 46.4991C75.1566 47.3188 74.1646 47.9888 73.4488 48.2034C72.0393 48.6256 63.9677 48.6848 62.9138 48.2806C62.518 48.1288 61.3025 47.1789 60.2128 46.1697C56.4909 42.723 53.5091 42.723 49.7872 46.1697C48.6975 47.1789 47.482 48.1288 47.0863 48.2806C46.0323 48.6848 37.9607 48.6256 36.5512 48.2034C35.8354 47.9888 34.8434 47.3188 34.0276 46.4991C32.2069 44.6696 31.7049 42.9199 31.8361 38.8592C31.9224 36.1842 32.006 35.7751 32.5857 35.1904L33.2382 34.5326L49.3485 34.3796C58.2093 34.2955 65.4972 34.198 65.5442 34.1627C65.8574 33.9285 66.3617 32.1849 66.2457 31.7376C65.9875 30.7411 64.77 30.0506 63.2711 30.0506H61.877V27.5928V25.1349H74.1726H86.4679L86.8521 27.2313ZM57.6995 49.6923C60.9157 52.7114 61.0452 52.7495 68.0721 52.7495H74.1239L76.1882 51.6808L78.2524 50.6121L78.0521 52.5483C77.4601 58.2776 75.4113 62.853 71.6347 66.8798C67.1721 71.6382 61.6143 74.0258 55 74.0258C48.6001 74.0258 43.6982 72.0314 38.9917 67.5131C35.005 63.6861 32.4932 58.3965 31.955 52.6957L31.759 50.6179L33.8176 51.6837L35.8761 52.7495H41.9279C48.9548 52.7495 49.0843 52.7114 52.3005 49.6923C53.7014 48.3772 54.3292 47.9784 55 47.9784C55.6708 47.9784 56.2986 48.3772 57.6995 49.6923ZM43.1506 75.7058C44.073 76.1653 45.9237 76.909 47.2633 77.3583C49.5786 78.135 49.9606 78.1758 55 78.1839L60.301 78.1928L63.453 77.0946C65.1866 76.4906 67.0314 75.7428 67.5526 75.4331C68.0738 75.1234 68.6079 74.8701 68.7395 74.8701C68.871 74.8701 69.036 76.3341 69.1059 78.1231C69.1759 79.9124 69.3209 81.5734 69.4283 81.8145C69.5856 82.1676 68.6352 82.582 64.5324 83.9488C61.7323 84.8816 59.0835 85.828 58.646 86.0519C58.0806 86.3413 57.4611 87.2501 56.5038 89.1947C55.7631 90.6995 55.0865 91.9304 55 91.9304C54.9135 91.9304 54.2369 90.6995 53.4962 89.1947C52.5389 87.2501 51.9194 86.3413 51.354 86.0519C50.9165 85.828 48.2677 84.8816 45.4676 83.9488C41.3648 82.582 40.4144 82.1676 40.5717 81.8145C40.6791 81.5734 40.8241 79.9124 40.8941 78.1231C40.964 76.3341 41.123 74.8701 41.2474 74.8701C41.372 74.8701 42.2282 75.246 43.1506 75.7058ZM32.0765 96.557V104.364H28.4947H24.913V98.0369V91.7095L28.2798 90.2389C30.1318 89.4298 31.7436 88.7639 31.8616 88.759C31.9797 88.7538 32.0765 92.263 32.0765 96.557ZM81.6714 90.229L85.087 91.7084V98.0363V104.364H81.5053H77.9235V96.557C77.9235 92.263 77.9982 88.7497 78.0897 88.7497C78.1811 88.7497 79.7929 89.4153 81.6714 90.229ZM8.44962 109.411L9.15308 110.121L9.14391 119.171C9.13446 128.682 9.12299 128.768 7.81091 129.474C6.80171 130.016 6.01342 129.867 5.11941 128.965L4.28185 128.12V119.404C4.28185 110.531 4.35176 109.887 5.40309 109.072C6.1865 108.465 7.67681 108.631 8.44962 109.411ZM104.597 109.072C105.648 109.887 105.718 110.531 105.718 119.404V128.12L104.881 128.965C103.987 129.867 103.198 130.016 102.189 129.474C100.877 128.768 100.866 128.682 100.856 119.171L100.847 110.121L101.55 109.411C102.323 108.631 103.814 108.465 104.597 109.072ZM30.604 114.17L29.9275 114.724V124.363V134.003L30.6782 135.618C31.5923 137.586 33.0359 139.09 35.0231 140.148C36.4735 140.919 36.6546 140.943 41.1027 140.943C45.3186 140.943 45.8088 140.887 47.1974 140.254C49.0938 139.389 51.3345 136.973 51.9609 135.118C52.3466 133.976 52.4211 132.221 52.4211 124.265C52.4211 115.159 52.3979 114.75 51.848 114.196C51.2967 113.639 50.893 113.617 41.2777 113.617C31.8591 113.617 31.2413 113.649 30.604 114.17ZM58.152 114.196C57.6021 114.75 57.5789 115.159 57.5789 124.265C57.5789 132.221 57.6534 133.976 58.0391 135.118C58.6655 136.973 60.9062 139.389 62.8026 140.254C64.1912 140.887 64.6814 140.943 68.8973 140.943C73.3393 140.943 73.5282 140.918 74.9683 140.152C76.9123 139.118 78.3997 137.561 79.3249 135.593L80.0725 134.003V124.363V114.724L79.396 114.17C78.7587 113.649 78.141 113.617 68.7223 113.617C59.107 113.617 58.7033 113.639 58.152 114.196ZM48.123 120.412V122.87H41.1027H34.0823V120.412V117.955H41.1027H48.123V120.412ZM75.9177 120.412V122.87H68.8973H61.877V120.412V117.955H68.8973H75.9177V120.412ZM48.123 130.346C48.123 133.124 48.049 133.593 47.4782 134.44C46.196 136.341 45.5676 136.595 41.8786 136.704C38.0014 136.819 36.8377 136.547 35.6171 135.239C34.4116 133.949 34.0823 132.774 34.0823 129.767V127.208H41.1027H48.123V130.346ZM75.9177 129.767C75.9177 132.774 75.5884 133.949 74.3829 135.239C73.1623 136.547 71.9986 136.819 68.1214 136.704C64.4324 136.595 63.804 136.341 62.5218 134.44C61.951 133.593 61.877 133.124 61.877 130.346V127.208H68.8973H75.9177V129.767Z" fill="#43AF88"/>
</svg>
