<svg width="118" height="148" viewBox="0 0 118 148" fill="none" xmlns="http://www.w3.org/2000/svg">
<path fill-rule="evenodd" clip-rule="evenodd" d="M36.3058 0.444413C29.3846 1.94925 23.5719 7.59974 21.7528 14.5903C21.1643 16.8525 21.1548 21.3337 21.7332 23.8352C22.7177 28.093 24.7122 31.1059 29.2573 35.201C38.0168 43.0931 53.0214 56.2325 53.9704 56.8416C54.5759 57.2303 55.9148 57.7573 56.9459 58.0122C59.122 58.551 61.374 58.2764 63.4945 57.2141C65.2227 56.3484 78.1518 44.8355 78.495 43.8568C79.0123 42.3812 77.3175 40.6838 75.886 41.2443C75.5653 41.3698 72.3546 44.0742 68.7516 47.2538C65.1484 50.4334 61.8518 53.224 61.4255 53.4547C60.999 53.6856 59.937 53.8747 59.0653 53.8747C58.1935 53.8747 57.1318 53.6856 56.7059 53.4547C55.718 52.919 31.1259 31.1825 29.3336 29.2608C26.1705 25.869 24.8266 20.5721 25.9267 15.8324C26.8177 11.9931 29.8979 7.95586 33.3104 6.15445C38.0136 3.67145 43.88 3.83159 48.2109 6.56116C48.819 6.94445 50.6346 8.30764 52.2456 9.59048C55.7684 12.3955 56.9575 12.9878 59.0653 12.9878C61.1858 12.9878 62.3884 12.39 65.8746 9.60378C69.4539 6.74326 70.5522 6.04114 72.7087 5.23525C77.8515 3.31331 84.1173 4.68142 88.0727 8.59034C89.8981 10.3941 91.6183 13.3763 92.1828 15.715C92.7206 17.9431 92.6091 21.5401 91.9356 23.6956C90.773 27.4167 90.2929 27.9933 82.1674 35.4325C81.1593 36.3555 80.8717 36.82 80.8717 37.5244C80.8717 38.7934 81.6838 39.5958 82.9576 39.5854C83.8666 39.5782 84.4614 39.1611 87.8041 36.189C93.3272 31.2782 95.344 28.3757 96.4057 23.8112C97.0469 21.0539 96.8501 15.8729 96.0063 13.2895C94.4549 8.54149 90.8592 4.38889 86.3778 2.17038C80.6267 -0.676841 74.9673 -0.722512 69.296 2.03221C67.9375 2.69184 65.5732 4.28425 63.5406 5.90847C58.988 9.54568 59.1699 9.54568 54.5983 5.90644C50.7323 2.82885 47.6155 1.15289 44.4549 0.452507C41.9532 -0.101905 38.8326 -0.104796 36.3058 0.444413ZM14.8121 49.2408C13.206 49.9909 11.4117 51.8831 10.9362 53.3286L10.6296 54.2606L9.55866 53.8773C6.33267 52.7222 2.45133 54.4363 0.666577 57.8044C0.190488 58.7028 0.120458 59.67 0.0409176 66.4385C-0.0481329 73.9908 -0.0429456 74.0674 0.595394 74.7489C1.44642 75.6577 2.84125 75.6661 3.68277 74.768C4.28969 74.1197 4.30929 73.8844 4.30929 67.2381C4.30929 59.6492 4.42168 59.0765 6.0782 58.2172C7.23182 57.6191 8.60994 57.8694 9.52264 58.8433L10.2172 59.5844L10.3644 75.243C10.5074 90.4589 10.5293 90.9448 11.1356 92.4361C11.4789 93.2801 12.0956 94.4124 12.5063 94.9523C12.9166 95.492 16.7196 99.152 20.9568 103.086C25.1944 107.02 29.3345 110.863 30.157 111.626C31.2657 112.655 31.8809 113.014 32.5346 113.014C33.7173 113.014 34.5692 112.116 34.5692 110.869C34.5692 109.955 34.1104 109.449 28.5172 104.191C25.1886 101.063 22.4652 98.4011 22.4652 98.2768C22.4652 97.9059 24.7436 95.9559 25.5249 95.6579C26.629 95.237 28.4408 95.3278 29.4682 95.8556C31.1927 96.7419 45.946 107.066 47.3242 108.351C48.1294 109.101 49.0812 110.415 49.6297 111.532L50.5637 113.435L50.6484 127.823L50.7329 142.21L50.013 142.932L49.2931 143.654H38.2165C27.7843 143.654 27.101 143.623 26.4676 143.108C25.8405 142.599 25.7823 142.29 25.6079 138.555C25.4033 134.168 24.8972 132.285 23.3445 130.135C22.8874 129.502 19.1776 125.293 15.1008 120.783C7.21799 112.06 6.16667 110.691 5.11824 107.779C4.47039 105.98 4.45108 105.625 4.36635 93.9392C4.28076 82.1737 4.2675 81.9335 3.66778 81.2929C2.78823 80.3538 1.35823 80.4139 0.566863 81.423C-0.0412161 82.1985 -0.0461155 82.3231 0.0486988 94.3583L0.144378 106.511L0.922489 108.823C1.35074 110.095 2.18159 111.948 2.76921 112.941C3.37815 113.97 7.23528 118.509 11.7362 123.492C16.4063 128.663 19.9395 132.828 20.3813 133.682C21.0427 134.962 21.1493 135.59 21.3119 139.174C21.4635 142.515 21.6038 143.43 22.1162 144.421C22.8736 145.887 24.4295 147.218 25.901 147.661C27.3947 148.109 48.9501 148.115 50.5637 147.667C52.1441 147.228 54.2923 145.042 54.7246 143.432C54.9586 142.56 55.0306 137.911 54.971 127.535L54.8865 112.87L54.1407 110.949C53.0124 108.043 51.0496 105.491 48.5697 103.707L46.4397 102.175L46.3403 88.1554L46.2408 74.1361L45.3763 72.4018C44.393 70.4293 42.7244 68.9898 40.8275 68.4773C39.6355 68.1555 37.1773 68.2339 36.2632 68.623C35.8594 68.7949 35.7781 68.4963 35.6646 66.4206C35.5141 63.6671 34.8856 62.1544 33.3196 60.7753C31.7075 59.3558 30.0146 58.8511 27.5031 59.0416L25.3471 59.2052V57.2563C25.3471 54.2082 24.6915 52.4248 22.9425 50.7164C20.6205 48.4485 17.6594 47.9108 14.8121 49.2408ZM97.685 48.935C97.1313 49.1119 96.0088 49.9114 95.1904 50.7121C93.4154 52.4485 92.7834 54.2085 92.7834 57.4162V59.5243L92.0442 59.2425C90.7234 58.7389 87.9695 58.9063 86.6479 59.5705C83.8124 60.9959 82.6593 62.8846 82.466 66.4206C82.3524 68.4963 82.2711 68.7949 81.8674 68.623C80.9533 68.2339 78.495 68.1555 77.303 68.4773C75.465 68.9739 73.7353 70.4345 72.8246 72.2587L72.0303 73.8503L71.9986 84.4838C71.9692 94.2806 72.007 95.1622 72.4773 95.6834C73.1854 96.4681 74.9376 96.445 75.6635 95.6409C76.178 95.0711 76.2171 94.4031 76.2857 85.018C76.3258 79.51 76.4267 74.7067 76.5094 74.344C76.7036 73.4959 78.2535 72.5489 79.4501 72.5475C80.0737 72.5466 80.6936 72.8256 81.3233 73.3895L82.2645 74.2327L82.3469 84.4887L82.4294 94.7448L76.8713 98.578C73.8145 100.686 70.4332 103.057 69.3577 103.845C67.0617 105.53 65.0711 108.164 63.9899 110.949L63.244 112.87L63.1596 127.535C63.0999 137.911 63.172 142.56 63.406 143.432C63.8383 145.042 65.9864 147.228 67.5669 147.667C69.1804 148.115 90.7358 148.109 92.2295 147.661C93.701 147.218 95.257 145.887 96.0143 144.421C96.5267 143.43 96.6671 142.515 96.8187 139.174C96.9815 135.589 97.0875 134.963 97.7498 133.682C98.1904 132.83 101.743 128.64 106.406 123.473C110.847 118.552 114.779 113.925 115.372 112.922C115.954 111.94 116.783 110.095 117.215 108.823L118 106.511V82.6633C118 59.9689 117.974 58.7673 117.464 57.8044C115.679 54.4363 111.798 52.7222 108.572 53.8773L107.501 54.2606L107.194 53.3286C106.719 51.8831 104.925 49.9909 103.318 49.2408C101.718 48.493 99.4536 48.3701 97.685 48.935ZM19.5208 53.3416C21.0566 54.4204 21.0243 53.9648 21.0243 74.4986V93.5342L20.0392 94.4919L19.0542 95.4492L17.5464 94.0427C14.6919 91.3796 14.8412 92.4925 14.7389 73.1244C14.6778 61.5728 14.7484 55.8761 14.9619 55.1462C15.1337 54.5586 15.6129 53.8105 16.0268 53.4841C16.9294 52.7719 18.6124 52.7034 19.5208 53.3416ZM102.104 53.4841C102.518 53.8105 102.997 54.5586 103.169 55.1462C103.382 55.8761 103.453 61.5728 103.392 73.1244C103.289 92.4925 103.439 91.3796 100.584 94.0427L99.0763 95.4492L98.0913 94.4919L97.1063 93.5342V74.4986C97.1063 53.9648 97.074 54.4204 98.6098 53.3416C99.5181 52.7034 101.201 52.7719 102.104 53.4841ZM112.102 58.2429C113.916 59.1841 113.846 58.1322 113.758 83.1709L113.677 105.932L113.012 107.779C111.964 110.691 110.913 112.06 103.03 120.783C98.953 125.293 95.2431 129.502 94.7861 130.135C93.2333 132.285 92.7272 134.168 92.5226 138.555C92.3483 142.29 92.29 142.599 91.6629 143.108C91.0295 143.623 90.3462 143.654 79.914 143.654H68.8375L68.1176 142.932L67.3977 142.21L67.4821 127.823L67.5669 113.435L68.5009 111.532C69.051 110.412 69.9989 109.105 70.8064 108.353C71.5609 107.651 75.929 104.489 80.5138 101.327C87.9055 96.2276 89.0033 95.5617 90.2064 95.4455C92.0514 95.2677 93.3264 95.7495 94.6745 97.1344L95.8091 98.2999L93.6474 100.382C92.4583 101.527 89.7027 104.134 87.5234 106.176C83.9314 109.541 83.5614 109.98 83.5614 110.873C83.5614 112.114 84.415 113.014 85.5911 113.014C86.2225 113.014 86.8479 112.666 87.8246 111.769C97.0198 103.331 105.34 95.4096 105.898 94.5612C107.617 91.9479 107.587 92.2638 107.757 75.2499C107.908 60.1215 107.933 59.5772 108.49 58.9563C109.545 57.7807 110.751 57.5422 112.102 58.2429ZM29.974 63.5942C31.3657 64.3411 31.3991 64.6955 31.3991 78.7339V91.8875L30.21 91.4669C29.5561 91.2353 28.1944 91.046 27.184 91.046H25.3471V78.0162V64.9863L26.1895 64.1414C26.8494 63.4795 27.2904 63.2965 28.2258 63.2965C28.8823 63.2965 29.6691 63.4303 29.974 63.5942ZM91.8307 63.994L92.6393 64.6915L92.7197 77.8687L92.8004 91.046H90.9549C89.9399 91.046 88.5744 91.2353 87.9205 91.4669L86.7315 91.8875V78.7339C86.7315 64.786 86.7675 64.3874 88.1003 63.6087C89.0615 63.0473 90.9606 63.2433 91.8307 63.994ZM40.3387 72.9828C40.8016 73.223 41.3094 73.6609 41.4667 73.9558C41.8203 74.6186 41.9091 98.7294 41.5575 98.6531C41.4235 98.6242 40.0508 97.7354 38.5073 96.6783L35.7012 94.7563L35.7836 84.4945L35.866 74.2327L36.8073 73.3895C37.8727 72.435 39.0263 72.3021 40.3387 72.9828Z" fill="#43AF88"/>
</svg>
