<svg width="118" height="147" viewBox="0 0 118 147" fill="none" xmlns="http://www.w3.org/2000/svg">
<path fill-rule="evenodd" clip-rule="evenodd" d="M36.3058 0.441411C29.3846 1.93608 23.5719 7.54839 21.7528 14.4917C21.1643 16.7386 21.1548 21.1896 21.7332 23.6742C22.7177 27.9032 24.7122 30.8957 29.2573 34.9631C38.0168 42.8019 53.0214 55.8526 53.9704 56.4575C54.5759 56.8436 55.9148 57.367 56.9459 57.6203C59.122 58.1554 61.374 57.8827 63.4945 56.8276C65.2227 55.9677 78.1518 44.5326 78.495 43.5605C79.0123 42.0948 77.3175 40.4089 75.886 40.9656C75.5653 41.0902 72.3546 43.7764 68.7516 46.9345C65.1484 50.0927 61.8518 52.8644 61.4255 53.0935C60.999 53.3229 59.937 53.5106 59.0653 53.5106C58.1935 53.5106 57.1318 53.3229 56.7059 53.0935C55.718 52.5615 31.1259 30.9718 29.3336 29.0631C26.1705 25.6942 24.8266 20.4331 25.9267 15.7254C26.8177 11.9121 29.8979 7.9021 33.3104 6.11287C38.0136 3.64664 43.88 3.8057 48.2109 6.51683C48.819 6.89753 50.6346 8.25151 52.2456 9.52568C55.7684 12.3117 56.9575 12.9 59.0653 12.9C61.1858 12.9 62.3884 12.3063 65.8746 9.53889C69.4539 6.6977 70.5522 6.00033 72.7087 5.19988C77.8515 3.29092 84.1173 4.64979 88.0727 8.5323C89.8981 10.3238 91.6183 13.2859 92.1828 15.6088C92.7206 17.8218 92.6091 21.3946 91.9356 23.5355C90.773 27.2314 90.2929 27.8042 82.1674 35.1931C81.1593 36.1098 80.8717 36.5712 80.8717 37.2709C80.8717 38.5313 81.6838 39.3283 82.9576 39.3179C83.8666 39.3107 84.4614 38.8965 87.8041 35.9445C93.3272 31.0668 95.344 28.184 96.4057 23.6504C97.0469 20.9117 96.8501 15.7656 96.0063 13.1998C94.4549 8.48378 90.8592 4.35924 86.3778 2.15571C80.6267 -0.672267 74.9673 -0.71763 69.296 2.01847C67.9375 2.67365 65.5732 4.2553 63.5406 5.86854C58.988 9.48118 59.1699 9.48118 54.5983 5.86653C50.7323 2.80973 47.6155 1.1451 44.4549 0.44945C41.9532 -0.101217 38.8326 -0.104088 36.3058 0.441411ZM14.8121 48.9081C13.206 49.6531 11.4117 51.5325 10.9362 52.9683L10.6296 53.8939L9.55866 53.5132C6.33267 52.366 2.45133 54.0685 0.666577 57.4138C0.190488 58.3061 0.120458 59.2668 0.0409176 65.9896C-0.0481329 73.4908 -0.0429456 73.5669 0.595394 74.2439C1.44642 75.1465 2.84125 75.1549 3.68277 74.2628C4.28969 73.6189 4.30929 73.3852 4.30929 66.7838C4.30929 59.2461 4.42168 58.6774 6.0782 57.8238C7.23182 57.2298 8.60994 57.4784 9.52264 58.4457L10.2172 59.1818L10.3644 74.7346C10.5074 89.8477 10.5293 90.3303 11.1356 91.8115C11.4789 92.6499 12.0956 93.7745 12.5063 94.3108C12.9166 94.8468 16.7196 98.4821 20.9568 102.389C25.1944 106.297 29.3345 110.114 30.157 110.872C31.2657 111.894 31.8809 112.251 32.5346 112.251C33.7173 112.251 34.5692 111.359 34.5692 110.12C34.5692 109.212 34.1104 108.709 28.5172 103.487C25.1886 100.38 22.4652 97.7362 22.4652 97.6128C22.4652 97.2444 24.7436 95.3076 25.5249 95.0116C26.629 94.5936 28.4408 94.6837 29.4682 95.208C31.1927 96.0882 45.946 106.342 47.3242 107.619C48.1294 108.364 49.0812 109.669 49.6297 110.778L50.5637 112.668L50.6484 126.959L50.7329 141.249L50.013 141.967L49.2931 142.684H38.2165C27.7843 142.684 27.101 142.652 26.4676 142.141C25.8405 141.635 25.7823 141.328 25.6079 137.619C25.4033 133.261 24.8972 131.391 23.3445 129.256C22.8874 128.627 19.1776 124.447 15.1008 119.966C7.21799 111.303 6.16667 109.943 5.11824 107.05C4.47039 105.264 4.45108 104.912 4.36635 93.3045C4.28076 81.6185 4.2675 81.3799 3.66778 80.7436C2.78823 79.8108 1.35823 79.8706 0.566863 80.8728C-0.0412161 81.6431 -0.0461155 81.7669 0.0486988 93.7208L0.144378 105.791L0.922489 108.088C1.35074 109.351 2.18159 111.192 2.76921 112.178C3.37815 113.2 7.23528 117.708 11.7362 122.657C16.4063 127.793 19.9395 131.93 20.3813 132.779C21.0427 134.05 21.1493 134.674 21.3119 138.234C21.4635 141.552 21.6038 142.461 22.1162 143.446C22.8736 144.901 24.4295 146.224 25.901 146.663C27.3947 147.108 48.9501 147.114 50.5637 146.669C52.1441 146.233 54.2923 144.062 54.7246 142.463C54.9586 141.597 55.0306 136.98 54.971 126.673L54.8865 112.107L54.1407 110.199C53.0124 107.313 51.0496 104.778 48.5697 103.007L46.4397 101.484L46.3403 87.5598L46.2408 73.6352L45.3763 71.9126C44.393 69.9534 42.7244 68.5236 40.8275 68.0146C39.6355 67.695 37.1773 67.7728 36.2632 68.1593C35.8594 68.3301 35.7781 68.0335 35.6646 65.9718C35.5141 63.2369 34.8856 61.7345 33.3196 60.3647C31.7075 58.9547 30.0146 58.4534 27.5031 58.6426L25.3471 58.8051V56.8695C25.3471 53.842 24.6915 52.0705 22.9425 50.3737C20.6205 48.1211 17.6594 47.5871 14.8121 48.9081ZM97.685 48.6043C97.1313 48.78 96.0088 49.5742 95.1904 50.3694C93.4154 52.0941 92.7834 53.8423 92.7834 57.0282V59.1221L92.0442 58.8422C90.7234 58.342 87.9695 58.5083 86.6479 59.168C83.8124 60.5837 82.6593 62.4597 82.466 65.9718C82.3524 68.0335 82.2711 68.3301 81.8674 68.1593C80.9533 67.7728 78.495 67.695 77.303 68.0146C75.465 68.5078 73.7353 69.9586 72.8246 71.7705L72.0303 73.3513L71.9986 83.913C71.9692 93.6435 72.007 94.5192 72.4773 95.0368C73.1854 95.8163 74.9376 95.7934 75.6635 94.9946C76.178 94.4288 76.2171 93.7653 76.2857 84.4436C76.3258 78.9728 76.4267 74.202 76.5094 73.8417C76.7036 72.9993 78.2535 72.0587 79.4501 72.0573C80.0737 72.0564 80.6936 72.3335 81.3233 72.8936L82.2645 73.7311L82.3469 83.9179L82.4294 94.1046L76.8713 97.9119C73.8145 100.006 70.4332 102.36 69.3577 103.144C67.0617 104.816 65.0711 107.433 63.9899 110.199L63.244 112.107L63.1596 126.673C63.0999 136.98 63.172 141.597 63.406 142.463C63.8383 144.062 65.9864 146.233 67.5669 146.669C69.1804 147.114 90.7358 147.108 92.2295 146.663C93.701 146.224 95.257 144.901 96.0143 143.446C96.5267 142.461 96.6671 141.552 96.8187 138.234C96.9815 134.673 97.0875 134.051 97.7498 132.779C98.1904 131.932 101.743 127.771 106.406 122.638C110.847 117.751 114.779 113.156 115.372 112.159C115.954 111.183 116.783 109.351 117.215 108.088L118 105.791V82.1048C118 59.5637 117.974 58.3702 117.464 57.4138C115.679 54.0685 111.798 52.366 108.572 53.5132L107.501 53.8939L107.194 52.9683C106.719 51.5325 104.925 49.6531 103.318 48.9081C101.718 48.1653 99.4536 48.0433 97.685 48.6043ZM19.5208 52.9812C21.0566 54.0527 21.0243 53.6002 21.0243 73.9953V92.9022L20.0392 93.8534L19.0542 94.8043L17.5464 93.4072C14.6919 90.7622 14.8412 91.8675 14.7389 72.6304C14.6778 61.1568 14.7484 55.4986 14.9619 54.7736C15.1337 54.1899 15.6129 53.4469 16.0268 53.1228C16.9294 52.4153 18.6124 52.3473 19.5208 52.9812ZM102.104 53.1228C102.518 53.4469 102.997 54.1899 103.169 54.7736C103.382 55.4986 103.453 61.1568 103.392 72.6304C103.289 91.8675 103.439 90.7622 100.584 93.4072L99.0763 94.8043L98.0913 93.8534L97.1063 92.9022V73.9953C97.1063 53.6002 97.074 54.0527 98.6098 52.9812C99.5181 52.3473 101.201 52.4153 102.104 53.1228ZM112.102 57.8494C113.916 58.7842 113.846 57.7394 113.758 82.609L113.677 105.217L113.012 107.05C111.964 109.943 110.913 111.303 103.03 119.966C98.953 124.447 95.2431 128.627 94.7861 129.256C93.2333 131.391 92.7272 133.261 92.5226 137.619C92.3483 141.328 92.29 141.635 91.6629 142.141C91.0295 142.652 90.3462 142.684 79.914 142.684H68.8375L68.1176 141.967L67.3977 141.249L67.4821 126.959L67.5669 112.668L68.5009 110.778C69.051 109.666 69.9989 108.368 70.8064 107.621C71.5609 106.924 75.929 103.783 80.5138 100.642C87.9055 95.5775 89.0033 94.916 90.2064 94.8006C92.0514 94.624 93.3264 95.1026 94.6745 96.4781L95.8091 97.6357L93.6474 99.7037C92.4583 100.841 89.7027 103.431 87.5234 105.458C83.9314 108.801 83.5614 109.236 83.5614 110.124C83.5614 111.356 84.415 112.251 85.5911 112.251C86.2225 112.251 86.8479 111.905 87.8246 111.014C97.0198 102.633 105.34 94.765 105.898 93.9223C107.617 91.3266 107.587 91.6404 107.757 74.7414C107.908 59.7153 107.933 59.1746 108.49 58.5579C109.545 57.3903 110.751 57.1534 112.102 57.8494ZM29.974 63.1645C31.3657 63.9064 31.3991 64.2584 31.3991 78.2019V91.2666L30.21 90.8489C29.5561 90.6189 28.1944 90.4308 27.184 90.4308H25.3471V77.489V64.5472L26.1895 63.708C26.8494 63.0506 27.2904 62.8688 28.2258 62.8688C28.8823 62.8688 29.6691 63.0017 29.974 63.1645ZM91.8307 63.5616L92.6393 64.2544L92.7197 77.3426L92.8004 90.4308H90.9549C89.9399 90.4308 88.5744 90.6189 87.9205 90.8489L86.7315 91.2666V78.2019C86.7315 64.3483 86.7675 63.9523 88.1003 63.1789C89.0615 62.6213 90.9606 62.816 91.8307 63.5616ZM40.3387 72.4897C40.8016 72.7283 41.3094 73.1632 41.4667 73.4561C41.8203 74.1144 41.9091 98.0623 41.5575 97.9866C41.4235 97.9578 40.0508 97.075 38.5073 96.0251L35.7012 94.1161L35.7836 83.9236L35.866 73.7311L36.8073 72.8936C37.8727 71.9456 39.0263 71.8135 40.3387 72.4897Z" fill="#43AF88"/>
</svg>
