<svg width="110" height="147" viewBox="0 0 110 147" fill="none" xmlns="http://www.w3.org/2000/svg">
<path fill-rule="evenodd" clip-rule="evenodd" d="M45.2575 0.420059C33.2422 2.32394 23.0888 11.3878 19.6506 23.2789C18.642 26.7682 18.3225 30.2721 18.3225 37.8476C18.3225 43.6176 18.3932 44.6644 18.8941 46.2894C19.8944 49.5354 22.8433 52.0648 26.0743 52.4485C26.8821 52.5445 27.5778 52.765 27.6205 52.9388C27.6632 53.1125 27.9182 54.4122 28.1873 55.8266C28.4561 57.2411 29.0515 59.3736 29.5105 60.5655C30.5289 63.2098 33.1918 67.3685 35.185 69.4269L36.6612 70.9517V75.1084C36.6612 79.6413 36.4088 80.7367 35.132 81.7434C34.7253 82.0639 29.7776 84.3009 24.137 86.7146C18.4961 89.1283 13.0194 91.5485 11.9664 92.0931C8.28199 93.9984 5.48705 97.8765 4.79906 102.039C4.50019 103.846 4.44374 103.938 3.12622 104.759C2.26458 105.296 1.46169 106.122 0.944761 107.003L0.126968 108.398L0.0329807 117.445C-0.0819231 128.502 -0.00828142 128.979 2.14595 131.138C2.98495 131.979 3.87323 132.667 4.11995 132.667C4.51366 132.667 4.56839 133.458 4.56839 139.142V145.617L5.27185 146.322C6.16816 147.22 7.26677 147.22 8.16307 146.322L8.86654 145.617V139.344V133.07L10.3632 132.079C11.4486 131.36 12.0787 130.663 12.6555 129.546L13.4512 128.006V118.666C13.4512 112.408 13.3415 108.959 13.1186 108.214C12.6936 106.791 11.1838 105.022 9.85769 104.391C8.85679 103.915 8.82986 103.861 9.00952 102.702C9.30552 100.792 10.5021 98.618 12.0007 97.2676C13.1865 96.1989 16.2402 94.6607 20.2523 93.1112C20.5309 93.0035 20.622 98.5893 20.6821 119.452L20.7581 145.929L21.4346 146.478C22.3109 147.189 23.2166 147.174 24.1579 146.432L24.913 145.836V126.902V107.967H43.6655H62.418L63.1954 107.297C63.7671 106.804 63.9656 106.375 63.9456 105.674C63.8909 103.744 64.4138 103.818 49.7606 103.659L36.518 103.515L36.4392 94.8993C36.3627 86.542 36.3776 86.2688 36.9415 85.8056C37.4925 85.353 37.818 85.4265 43.203 87.2206L48.8832 89.1133L50.2391 91.7777C51.8176 94.8804 52.8704 95.7609 55 95.7609C57.1296 95.7609 58.1823 94.8804 59.7609 91.7777L61.1168 89.1133L66.797 87.2206C72.182 85.4265 72.5075 85.353 73.0585 85.8056C73.6224 86.2688 73.6374 86.542 73.5608 94.8993L73.482 103.515L71.6674 103.66C69.6128 103.824 69.0406 104.3 69.0406 105.847C69.0406 106.509 69.2578 106.948 69.7957 107.372C70.5143 107.938 70.8997 107.967 77.8189 107.967H85.087V126.902V145.836L85.8421 146.432C86.7834 147.174 87.6891 147.189 88.5654 146.478L89.2419 145.929L89.3179 119.452C89.378 98.5893 89.4692 93.0035 89.7477 93.1112C93.7601 94.6609 96.8135 96.1989 97.9993 97.2676C99.4858 98.6071 100.659 100.746 100.98 102.702C101.17 103.865 101.146 103.913 100.142 104.391C98.8162 105.022 97.3064 106.791 96.8815 108.214C96.6585 108.959 96.5488 112.408 96.5488 118.666V128.006L97.3445 129.546C97.9213 130.663 98.5514 131.36 99.6369 132.079L101.133 133.07V139.453V145.836L101.889 146.432C102.89 147.221 103.869 147.183 104.728 146.322L105.432 145.617V139.142C105.432 133.458 105.486 132.667 105.88 132.667C106.127 132.667 107.015 131.979 107.854 131.138C110.008 128.979 110.082 128.502 109.967 117.445L109.873 108.398L109.055 107.003C108.538 106.122 107.735 105.296 106.874 104.759C105.556 103.938 105.5 103.846 105.201 102.039C104.577 98.2668 102.191 94.6463 98.9844 92.6095C98.1964 92.1089 92.5054 89.5352 86.3375 86.8904C80.1534 84.2386 74.86 81.7999 74.5365 81.4539C73.5333 80.3806 73.3388 79.3435 73.3388 75.0702V70.9313L74.8056 69.4168C78.1822 65.9302 80.9047 60.6557 81.8139 55.8396C82.0821 54.4179 82.3368 53.1125 82.3795 52.9388C82.4222 52.765 83.1044 52.5459 83.8959 52.452C87.4387 52.0315 90.2907 49.424 91.2514 45.7268C91.7695 43.7336 91.8457 32.7722 91.3712 28.5075C89.7806 14.2113 78.6272 2.53417 64.5281 0.403975C60.9125 -0.142287 48.7419 -0.132235 45.2575 0.420059ZM65.8184 4.96593C73.7038 7.00393 80.5674 12.3129 83.9692 19.0056L84.8088 20.657H73.384H61.9593L61.7713 18.6285C61.5524 16.2694 61.01 14.809 59.9277 13.6659C57.3009 10.8921 52.6991 10.8921 50.0723 13.6659C48.4645 15.3642 48.2989 16.2065 48.1791 23.297L48.0691 29.8143L40.2877 29.9027C33.3499 29.9817 32.3978 30.0492 31.5035 30.5265C30.0991 31.2764 28.977 32.381 28.2546 33.7248C27.6821 34.7901 27.6302 35.3622 27.5411 41.585L27.4449 48.2961L26.4388 48.1324C24.9889 47.8966 23.61 46.7214 23.0456 45.2403C22.6189 44.1202 22.5759 43.0136 22.6928 36.1167C22.7745 31.2908 22.967 27.6318 23.1926 26.6165L23.5593 24.9651H32.8324C41.7236 24.9651 42.1291 24.9416 42.6786 24.3907C43.532 23.5354 43.4429 21.9983 42.4967 21.2524C41.7726 20.6812 41.4044 20.657 33.4657 20.657H25.1898L25.9454 19.1492C28.4185 14.2125 33.7184 9.16112 38.8418 6.85717C43.8154 4.62042 46.0229 4.30622 56.0029 4.41507C62.2278 4.48314 64.4278 4.60663 65.8184 4.96593ZM56.1892 16.0848C57.3594 16.7126 57.5789 17.9777 57.5789 24.0943V29.8476H55H52.4211V24.0943C52.4211 18.0475 52.6375 16.7511 53.7553 16.1C54.4407 15.7005 55.461 15.6944 56.1892 16.0848ZM86.8521 27.0473C87.1135 28.4644 87.2361 31.6524 87.2361 37.0277C87.2361 43.982 87.1768 45.0346 86.739 45.8365C86.1089 46.9911 84.8002 47.9311 83.5371 48.1365L82.5552 48.2961L82.4589 41.585C82.3698 35.3622 82.3179 34.7901 81.7454 33.7248C80.3946 31.2115 78.463 30.0857 75.2013 29.9108C73.1723 29.8019 72.8184 29.8596 72.121 30.4131C71.5522 30.8643 71.333 31.2965 71.333 31.9674C71.333 33.6102 71.8571 33.9784 74.4709 34.1709C77.7988 34.4158 78.0372 34.7016 78.1639 38.5967C78.2951 42.6299 77.7931 44.3678 75.9724 46.1849C75.1566 46.9991 74.1646 47.6646 73.4488 47.8777C72.0393 48.297 63.9677 48.3559 62.9138 47.9544C62.518 47.8036 61.3025 46.8601 60.2128 45.8578C56.4909 42.4343 53.5091 42.4343 49.7872 45.8578C48.6975 46.8601 47.482 47.8036 47.0863 47.9544C46.0323 48.3559 37.9607 48.297 36.5512 47.8777C35.8354 47.6646 34.8434 46.9991 34.0276 46.1849C32.2069 44.3678 31.7049 42.6299 31.8361 38.5967C31.9224 35.9398 32.006 35.5334 32.5857 34.9526L33.2382 34.2992L49.3485 34.1473C58.2093 34.0637 65.4972 33.9669 65.5442 33.9319C65.8574 33.6993 66.3617 31.9674 66.2457 31.5231C65.9875 30.5334 64.77 29.8476 63.2711 29.8476H61.877V27.4063V24.9651H74.1726H86.4679L86.8521 27.0473ZM57.6995 49.3565C60.9157 52.3552 61.0452 52.3931 68.0721 52.3931H74.1239L76.1882 51.3316L78.2524 50.2701L78.0521 52.1932C77.4601 57.8839 75.4113 62.4283 71.6347 66.4279C67.1721 71.1541 61.6143 73.5256 55 73.5256C48.6001 73.5256 43.6982 71.5447 38.9917 67.0569C35.005 63.2557 32.4932 58.0019 31.955 52.3397L31.759 50.2758L33.8176 51.3345L35.8761 52.3931H41.9279C48.9548 52.3931 49.0843 52.3552 52.3005 49.3565C53.7014 48.0503 54.3292 47.6542 55 47.6542C55.6708 47.6542 56.2986 48.0503 57.6995 49.3565ZM43.1506 75.1943C44.073 75.6506 45.9237 76.3893 47.2633 76.8356C49.5786 77.6071 49.9606 77.6475 55 77.6556L60.301 77.6645L63.453 76.5737C65.1866 75.9737 67.0314 75.231 67.5526 74.9234C68.0738 74.6158 68.6079 74.3642 68.7395 74.3642C68.871 74.3642 69.036 75.8183 69.1059 77.5953C69.1759 79.3725 69.3209 81.0222 69.4283 81.2617C69.5856 81.6124 68.6352 82.024 64.5324 83.3816C61.7323 84.3081 59.0835 85.2481 58.646 85.4704C58.0806 85.7579 57.4611 86.6606 56.5038 88.592C55.7631 90.0867 55.0865 91.3093 55 91.3093C54.9135 91.3093 54.2369 90.0867 53.4962 88.592C52.5389 86.6606 51.9194 85.7579 51.354 85.4704C50.9165 85.2481 48.2677 84.3081 45.4676 83.3816C41.3648 82.024 40.4144 81.6124 40.5717 81.2617C40.6791 81.0222 40.8241 79.3725 40.8941 77.5953C40.964 75.8183 41.123 74.3642 41.2474 74.3642C41.372 74.3642 42.2282 74.7376 43.1506 75.1943ZM32.0765 95.9045V103.659H28.4947H24.913V97.3745V91.0899L28.2798 89.6291C30.1318 88.8255 31.7436 88.1641 31.8616 88.1592C31.9797 88.1541 32.0765 91.6396 32.0765 95.9045ZM81.6714 89.6194L85.087 91.0887V97.3739V103.659H81.5053H77.9235V95.9045C77.9235 91.6396 77.9982 88.15 78.0897 88.15C78.1811 88.15 79.7929 88.8112 81.6714 89.6194ZM8.44962 108.672L9.15308 109.377L9.14391 118.365C9.13446 127.812 9.12299 127.898 7.81091 128.599C6.80171 129.138 6.01342 128.99 5.11941 128.094L4.28185 127.254V118.597C4.28185 109.784 4.35176 109.144 5.40309 108.335C6.1865 107.732 7.67681 107.897 8.44962 108.672ZM104.597 108.335C105.648 109.144 105.718 109.784 105.718 118.597V127.254L104.881 128.094C103.987 128.99 103.198 129.138 102.189 128.599C100.877 127.898 100.866 127.812 100.856 118.365L100.847 109.377L101.55 108.672C102.323 107.897 103.814 107.732 104.597 108.335ZM30.604 113.399L29.9275 113.948V123.523V133.097L30.6782 134.702C31.5923 136.656 33.0359 138.151 35.0231 139.201C36.4735 139.967 36.6546 139.99 41.1027 139.99C45.3186 139.99 45.8088 139.935 47.1974 139.306C49.0938 138.447 51.3345 136.048 51.9609 134.205C52.3466 133.07 52.4211 131.327 52.4211 123.425C52.4211 114.381 52.3979 113.975 51.848 113.424C51.2967 112.871 50.893 112.85 41.2777 112.85C31.8591 112.85 31.2413 112.881 30.604 113.399ZM58.152 113.424C57.6021 113.975 57.5789 114.381 57.5789 123.425C57.5789 131.327 57.6534 133.07 58.0391 134.205C58.6655 136.048 60.9062 138.447 62.8026 139.306C64.1912 139.935 64.6814 139.99 68.8973 139.99C73.3393 139.99 73.5282 139.966 74.9683 139.205C76.9123 138.178 78.3997 136.632 79.3249 134.677L80.0725 133.097V123.523V113.948L79.396 113.399C78.7587 112.881 78.1409 112.85 68.7223 112.85C59.107 112.85 58.7033 112.871 58.152 113.424ZM48.123 119.599V122.04H41.1027H34.0823V119.599V117.158H41.1027H48.123V119.599ZM75.9177 119.599V122.04H68.8973H61.877V119.599V117.158H68.8973H75.9177V119.599ZM48.123 129.465C48.123 132.224 48.049 132.691 47.4782 133.531C46.196 135.42 45.5676 135.672 41.8786 135.781C38.0014 135.894 36.8377 135.624 35.6171 134.326C34.4116 133.044 34.0823 131.877 34.0823 128.89V126.348H41.1027H48.123V129.465ZM75.9177 128.89C75.9177 131.877 75.5884 133.044 74.3829 134.326C73.1623 135.624 71.9986 135.894 68.1214 135.781C64.4324 135.672 63.804 135.42 62.5218 133.531C61.951 132.691 61.877 132.224 61.877 129.465V126.348H68.8973H75.9177V128.89Z" fill="#43AF88"/>
</svg>
